<mxfile host="app.diagrams.net" modified="2022-09-18T10:28:17.222Z" agent="5.0 (Macintosh; Intel Mac OS X 10_15_7) AppleWebKit/537.36 (KHTML, like Gecko) Chrome/105.0.0.0 Safari/537.36" etag="XOU5pvsmmQrz7FhJGcxP" version="20.3.0" type="github">
  <diagram name="Page-1" id="b5b7bab2-c9e2-2cf4-8b2a-24fd1a2a6d21">
    <mxGraphModel dx="848" dy="548" grid="1" gridSize="10" guides="1" tooltips="1" connect="1" arrows="1" fold="1" page="1" pageScale="1" pageWidth="827" pageHeight="1169" background="none" math="0" shadow="0">
      <root>
        <mxCell id="0" />
        <mxCell id="1" parent="0" />
        <mxCell id="6e0c8c40b5770093-33" value="" style="shape=folder;fontStyle=1;spacingTop=10;tabWidth=123;tabHeight=24;tabPosition=left;html=1;rounded=0;shadow=0;comic=0;labelBackgroundColor=none;strokeColor=#000000;strokeWidth=1;fillColor=#ffffff;fontFamily=Verdana;fontSize=10;fontColor=#000000;align=center;" parent="1" vertex="1">
          <mxGeometry x="180" y="250" width="380" height="360" as="geometry" />
        </mxCell>
        <mxCell id="6e0c8c40b5770093-68" style="edgeStyle=elbowEdgeStyle;rounded=0;html=1;entryX=0.628;entryY=0.26;entryPerimeter=0;dashed=1;labelBackgroundColor=none;startFill=0;endArrow=open;endFill=0;endSize=10;fontFamily=Verdana;fontSize=10;" parent="1" source="6e0c8c40b5770093-47" edge="1">
          <mxGeometry relative="1" as="geometry">
            <mxPoint x="658.1400000000001" y="972.7694795496325" as="targetPoint" />
          </mxGeometry>
        </mxCell>
        <mxCell id="6e0c8c40b5770093-69" style="edgeStyle=elbowEdgeStyle;rounded=0;html=1;entryX=0.643;entryY=0.246;entryPerimeter=0;dashed=1;labelBackgroundColor=none;startFill=0;endArrow=open;endFill=0;endSize=10;fontFamily=Verdana;fontSize=10;" parent="1" source="6e0c8c40b5770093-47" edge="1">
          <mxGeometry relative="1" as="geometry">
            <mxPoint x="827.0899999999999" y="971.7894795496325" as="targetPoint" />
          </mxGeometry>
        </mxCell>
        <mxCell id="6e0c8c40b5770093-58" style="rounded=0;html=1;dashed=1;labelBackgroundColor=none;startFill=0;endArrow=open;endFill=0;endSize=10;fontFamily=Verdana;fontSize=10;entryX=0.592;entryY=0.2;entryPerimeter=0;edgeStyle=elbowEdgeStyle;" parent="1" target="6e0c8c40b5770093-11" edge="1">
          <mxGeometry relative="1" as="geometry">
            <mxPoint x="527" y="244.5" as="sourcePoint" />
          </mxGeometry>
        </mxCell>
        <mxCell id="xVtsM1ObM8wnCOpzWb3Z-13" style="edgeStyle=orthogonalEdgeStyle;rounded=0;orthogonalLoop=1;jettySize=auto;html=1;exitX=0;exitY=0.5;exitDx=0;exitDy=0;entryX=1;entryY=0.5;entryDx=0;entryDy=0;" edge="1" parent="1" source="xVtsM1ObM8wnCOpzWb3Z-4" target="xVtsM1ObM8wnCOpzWb3Z-7">
          <mxGeometry relative="1" as="geometry" />
        </mxCell>
        <mxCell id="xVtsM1ObM8wnCOpzWb3Z-14" style="edgeStyle=orthogonalEdgeStyle;rounded=0;orthogonalLoop=1;jettySize=auto;html=1;exitX=0;exitY=0.5;exitDx=0;exitDy=0;entryX=1;entryY=0.5;entryDx=0;entryDy=0;" edge="1" parent="1" source="xVtsM1ObM8wnCOpzWb3Z-4" target="xVtsM1ObM8wnCOpzWb3Z-6">
          <mxGeometry relative="1" as="geometry" />
        </mxCell>
        <mxCell id="xVtsM1ObM8wnCOpzWb3Z-15" style="edgeStyle=orthogonalEdgeStyle;rounded=0;orthogonalLoop=1;jettySize=auto;html=1;exitX=0;exitY=0.5;exitDx=0;exitDy=0;entryX=1;entryY=0.5;entryDx=0;entryDy=0;" edge="1" parent="1" source="xVtsM1ObM8wnCOpzWb3Z-4" target="xVtsM1ObM8wnCOpzWb3Z-5">
          <mxGeometry relative="1" as="geometry" />
        </mxCell>
        <mxCell id="xVtsM1ObM8wnCOpzWb3Z-4" value="&lt;meta charset=&quot;utf-8&quot;&gt;&lt;span style=&quot;color: rgb(0, 0, 0); font-family: Verdana; font-size: 10px; font-style: normal; font-variant-ligatures: normal; font-variant-caps: normal; font-weight: 700; letter-spacing: normal; orphans: 2; text-align: center; text-indent: 0px; text-transform: none; widows: 2; word-spacing: 0px; -webkit-text-stroke-width: 0px; background-color: rgb(248, 249, 250); text-decoration-thickness: initial; text-decoration-style: initial; text-decoration-color: initial; float: none; display: inline !important;&quot;&gt;simtong-&lt;/span&gt;&lt;br style=&quot;color: rgb(0, 0, 0); font-family: Verdana; font-size: 10px; font-style: normal; font-variant-ligatures: normal; font-variant-caps: normal; font-weight: 700; letter-spacing: normal; orphans: 2; text-align: center; text-indent: 0px; text-transform: none; widows: 2; word-spacing: 0px; -webkit-text-stroke-width: 0px; background-color: rgb(248, 249, 250); text-decoration-thickness: initial; text-decoration-style: initial; text-decoration-color: initial;&quot;&gt;&lt;span style=&quot;color: rgb(0, 0, 0); font-family: Verdana; font-size: 10px; font-style: normal; font-variant-ligatures: normal; font-variant-caps: normal; font-weight: 700; letter-spacing: normal; orphans: 2; text-align: center; text-indent: 0px; text-transform: none; widows: 2; word-spacing: 0px; -webkit-text-stroke-width: 0px; background-color: rgb(248, 249, 250); text-decoration-thickness: initial; text-decoration-style: initial; text-decoration-color: initial; float: none; display: inline !important;&quot;&gt;infrastructure&lt;/span&gt;" style="rounded=0;whiteSpace=wrap;html=1;" vertex="1" parent="1">
          <mxGeometry x="400" y="410" width="120" height="60" as="geometry" />
        </mxCell>
        <mxCell id="xVtsM1ObM8wnCOpzWb3Z-10" style="edgeStyle=orthogonalEdgeStyle;rounded=0;orthogonalLoop=1;jettySize=auto;html=1;exitX=0.5;exitY=1;exitDx=0;exitDy=0;entryX=0.5;entryY=0;entryDx=0;entryDy=0;" edge="1" parent="1" source="xVtsM1ObM8wnCOpzWb3Z-5" target="xVtsM1ObM8wnCOpzWb3Z-6">
          <mxGeometry relative="1" as="geometry" />
        </mxCell>
        <mxCell id="xVtsM1ObM8wnCOpzWb3Z-5" value="&lt;span style=&quot;color: rgb(0, 0, 0); font-family: Verdana; font-size: 10px; font-style: normal; font-variant-ligatures: normal; font-variant-caps: normal; font-weight: 700; letter-spacing: normal; orphans: 2; text-align: center; text-indent: 0px; text-transform: none; widows: 2; word-spacing: 0px; -webkit-text-stroke-width: 0px; background-color: rgb(248, 249, 250); text-decoration-thickness: initial; text-decoration-style: initial; text-decoration-color: initial; float: none; display: inline !important;&quot;&gt;simtong-&lt;/span&gt;&lt;br style=&quot;color: rgb(0, 0, 0); font-family: Verdana; font-size: 10px; font-style: normal; font-variant-ligatures: normal; font-variant-caps: normal; font-weight: 700; letter-spacing: normal; orphans: 2; text-align: center; text-indent: 0px; text-transform: none; widows: 2; word-spacing: 0px; -webkit-text-stroke-width: 0px; background-color: rgb(248, 249, 250); text-decoration-thickness: initial; text-decoration-style: initial; text-decoration-color: initial;&quot;&gt;&lt;span style=&quot;color: rgb(0, 0, 0); font-family: Verdana; font-size: 10px; font-style: normal; font-variant-ligatures: normal; font-variant-caps: normal; font-weight: 700; letter-spacing: normal; orphans: 2; text-align: center; text-indent: 0px; text-transform: none; widows: 2; word-spacing: 0px; -webkit-text-stroke-width: 0px; background-color: rgb(248, 249, 250); text-decoration-thickness: initial; text-decoration-style: initial; text-decoration-color: initial; float: none; display: inline !important;&quot;&gt;application&lt;/span&gt;" style="rounded=0;whiteSpace=wrap;html=1;" vertex="1" parent="1">
          <mxGeometry x="220" y="410" width="120" height="60" as="geometry" />
        </mxCell>
        <mxCell id="xVtsM1ObM8wnCOpzWb3Z-6" value="&lt;span style=&quot;color: rgb(0, 0, 0); font-family: Verdana; font-size: 10px; font-style: normal; font-variant-ligatures: normal; font-variant-caps: normal; font-weight: 700; letter-spacing: normal; orphans: 2; text-align: center; text-indent: 0px; text-transform: none; widows: 2; word-spacing: 0px; -webkit-text-stroke-width: 0px; background-color: rgb(248, 249, 250); text-decoration-thickness: initial; text-decoration-style: initial; text-decoration-color: initial; float: none; display: inline !important;&quot;&gt;simtong-&lt;/span&gt;&lt;br style=&quot;color: rgb(0, 0, 0); font-family: Verdana; font-size: 10px; font-style: normal; font-variant-ligatures: normal; font-variant-caps: normal; font-weight: 700; letter-spacing: normal; orphans: 2; text-align: center; text-indent: 0px; text-transform: none; widows: 2; word-spacing: 0px; -webkit-text-stroke-width: 0px; background-color: rgb(248, 249, 250); text-decoration-thickness: initial; text-decoration-style: initial; text-decoration-color: initial;&quot;&gt;&lt;font face=&quot;Verdana&quot;&gt;&lt;span style=&quot;font-size: 10px;&quot;&gt;&lt;b&gt;domain&lt;/b&gt;&lt;/span&gt;&lt;/font&gt;" style="rounded=0;whiteSpace=wrap;html=1;" vertex="1" parent="1">
          <mxGeometry x="220" y="510" width="120" height="60" as="geometry" />
        </mxCell>
        <mxCell id="xVtsM1ObM8wnCOpzWb3Z-11" style="edgeStyle=orthogonalEdgeStyle;rounded=0;orthogonalLoop=1;jettySize=auto;html=1;exitX=0.5;exitY=1;exitDx=0;exitDy=0;entryX=0.5;entryY=0;entryDx=0;entryDy=0;" edge="1" parent="1" source="xVtsM1ObM8wnCOpzWb3Z-7" target="xVtsM1ObM8wnCOpzWb3Z-5">
          <mxGeometry relative="1" as="geometry" />
        </mxCell>
        <mxCell id="xVtsM1ObM8wnCOpzWb3Z-7" value="&lt;span style=&quot;color: rgb(0, 0, 0); font-family: Verdana; font-size: 10px; font-style: normal; font-variant-ligatures: normal; font-variant-caps: normal; font-weight: 700; letter-spacing: normal; orphans: 2; text-align: center; text-indent: 0px; text-transform: none; widows: 2; word-spacing: 0px; -webkit-text-stroke-width: 0px; background-color: rgb(248, 249, 250); text-decoration-thickness: initial; text-decoration-style: initial; text-decoration-color: initial; float: none; display: inline !important;&quot;&gt;simtong-&lt;/span&gt;&lt;br style=&quot;color: rgb(0, 0, 0); font-family: Verdana; font-size: 10px; font-style: normal; font-variant-ligatures: normal; font-variant-caps: normal; font-weight: 700; letter-spacing: normal; orphans: 2; text-align: center; text-indent: 0px; text-transform: none; widows: 2; word-spacing: 0px; -webkit-text-stroke-width: 0px; background-color: rgb(248, 249, 250); text-decoration-thickness: initial; text-decoration-style: initial; text-decoration-color: initial;&quot;&gt;&lt;span style=&quot;color: rgb(0, 0, 0); font-family: Verdana; font-size: 10px; font-style: normal; font-variant-ligatures: normal; font-variant-caps: normal; font-weight: 700; letter-spacing: normal; orphans: 2; text-align: center; text-indent: 0px; text-transform: none; widows: 2; word-spacing: 0px; -webkit-text-stroke-width: 0px; background-color: rgb(248, 249, 250); text-decoration-thickness: initial; text-decoration-style: initial; text-decoration-color: initial; float: none; display: inline !important;&quot;&gt;presentation&lt;/span&gt;" style="rounded=0;whiteSpace=wrap;html=1;" vertex="1" parent="1">
          <mxGeometry x="220" y="310" width="120" height="60" as="geometry" />
        </mxCell>
        <mxCell id="xVtsM1ObM8wnCOpzWb3Z-16" value="simtong" style="text;html=1;strokeColor=none;fillColor=none;align=center;verticalAlign=middle;whiteSpace=wrap;rounded=0;" vertex="1" parent="1">
          <mxGeometry x="190" y="247" width="109" height="30" as="geometry" />
        </mxCell>
      </root>
    </mxGraphModel>
  </diagram>
</mxfile>
